<mxfile host="app.diagrams.net" modified="2021-04-01T04:59:17.510Z" agent="5.0 (Windows NT 6.1; Win64; x64) AppleWebKit/537.36 (KHTML, like Gecko) Chrome/89.0.4389.90 Safari/537.36" etag="DLzQAg_rzoWDkj_waEp7" version="14.5.4" type="github">
  <diagram id="prtHgNgQTEPvFCAcTncT" name="Page-1">
    <mxGraphModel dx="1173" dy="749" grid="0" gridSize="10" guides="1" tooltips="1" connect="1" arrows="1" fold="1" page="1" pageScale="1" pageWidth="827" pageHeight="1169" math="0" shadow="0">
      <root>
        <mxCell id="0" />
        <mxCell id="1" parent="0" />
        <mxCell id="oB3eh2lloK5nSunVHayN-1" value="" style="shape=link;html=1;width=86;" edge="1" parent="1">
          <mxGeometry width="100" relative="1" as="geometry">
            <mxPoint x="34" y="394.5799999999999" as="sourcePoint" />
            <mxPoint x="794" y="394.5799999999999" as="targetPoint" />
          </mxGeometry>
        </mxCell>
        <mxCell id="oB3eh2lloK5nSunVHayN-2" value="9" style="ellipse;whiteSpace=wrap;html=1;aspect=fixed;fillColor=#dae8fc;strokeColor=#6c8ebf;" vertex="1" parent="1">
          <mxGeometry x="90" y="370" width="50" height="50" as="geometry" />
        </mxCell>
        <mxCell id="oB3eh2lloK5nSunVHayN-3" value="8" style="ellipse;whiteSpace=wrap;html=1;aspect=fixed;fillColor=#dae8fc;strokeColor=#6c8ebf;" vertex="1" parent="1">
          <mxGeometry x="164" y="370" width="50" height="50" as="geometry" />
        </mxCell>
        <mxCell id="oB3eh2lloK5nSunVHayN-4" value="7" style="ellipse;whiteSpace=wrap;html=1;aspect=fixed;fillColor=#dae8fc;strokeColor=#6c8ebf;" vertex="1" parent="1">
          <mxGeometry x="238" y="370" width="50" height="50" as="geometry" />
        </mxCell>
        <mxCell id="oB3eh2lloK5nSunVHayN-5" value="6" style="ellipse;whiteSpace=wrap;html=1;aspect=fixed;fillColor=#dae8fc;strokeColor=#6c8ebf;" vertex="1" parent="1">
          <mxGeometry x="314" y="370" width="50" height="50" as="geometry" />
        </mxCell>
        <mxCell id="oB3eh2lloK5nSunVHayN-6" value="5" style="ellipse;whiteSpace=wrap;html=1;aspect=fixed;fillColor=#dae8fc;strokeColor=#6c8ebf;" vertex="1" parent="1">
          <mxGeometry x="392" y="370" width="50" height="50" as="geometry" />
        </mxCell>
        <mxCell id="oB3eh2lloK5nSunVHayN-7" value="4" style="ellipse;whiteSpace=wrap;html=1;aspect=fixed;fillColor=#dae8fc;strokeColor=#6c8ebf;" vertex="1" parent="1">
          <mxGeometry x="467" y="370" width="50" height="50" as="geometry" />
        </mxCell>
        <mxCell id="oB3eh2lloK5nSunVHayN-8" value="3" style="ellipse;whiteSpace=wrap;html=1;aspect=fixed;fillColor=#dae8fc;strokeColor=#6c8ebf;" vertex="1" parent="1">
          <mxGeometry x="544" y="370" width="50" height="50" as="geometry" />
        </mxCell>
        <mxCell id="oB3eh2lloK5nSunVHayN-9" value="2" style="ellipse;whiteSpace=wrap;html=1;aspect=fixed;fillColor=#dae8fc;strokeColor=#6c8ebf;" vertex="1" parent="1">
          <mxGeometry x="618" y="370" width="50" height="50" as="geometry" />
        </mxCell>
        <mxCell id="oB3eh2lloK5nSunVHayN-10" value="1" style="ellipse;whiteSpace=wrap;html=1;aspect=fixed;fontSize=12;fillColor=#dae8fc;strokeColor=#6c8ebf;" vertex="1" parent="1">
          <mxGeometry x="692" y="370" width="50" height="50" as="geometry" />
        </mxCell>
        <mxCell id="oB3eh2lloK5nSunVHayN-23" value="" style="endArrow=none;html=1;" edge="1" parent="1">
          <mxGeometry width="50" height="50" relative="1" as="geometry">
            <mxPoint x="300" y="450" as="sourcePoint" />
            <mxPoint x="300" y="340" as="targetPoint" />
          </mxGeometry>
        </mxCell>
        <mxCell id="oB3eh2lloK5nSunVHayN-24" value="" style="endArrow=none;html=1;" edge="1" parent="1">
          <mxGeometry width="50" height="50" relative="1" as="geometry">
            <mxPoint x="530" y="450" as="sourcePoint" />
            <mxPoint x="530" y="340" as="targetPoint" />
          </mxGeometry>
        </mxCell>
        <mxCell id="oB3eh2lloK5nSunVHayN-25" value="window(6)" style="rounded=0;whiteSpace=wrap;html=1;" vertex="1" parent="1">
          <mxGeometry x="270" y="302" width="62" height="30" as="geometry" />
        </mxCell>
        <mxCell id="oB3eh2lloK5nSunVHayN-26" value="window(3)" style="rounded=0;whiteSpace=wrap;html=1;" vertex="1" parent="1">
          <mxGeometry x="500" y="302" width="62" height="30" as="geometry" />
        </mxCell>
      </root>
    </mxGraphModel>
  </diagram>
</mxfile>
